<?xml version="1.0" encoding="UTF-8" standalone="no"?>
<!DOCTYPE svg PUBLIC "-//W3C//DTD SVG 1.1//EN" "http://www.w3.org/Graphics/SVG/1.1/DTD/svg11.dtd">
<svg version="1.1" xmlns="http://www.w3.org/2000/svg" xmlns:xlink="http://www.w3.org/1999/xlink" preserveAspectRatio="xMidYMid meet" viewBox="0 0 300 300" width="300" height="300"><defs><path d="M168.04 3.55L173.91 4.4L179.71 5.46L185.44 6.75L191.07 8.26L196.61 9.98L202.06 11.92L207.4 14.07L212.65 16.41L217.78 18.94L222.8 21.67L227.7 24.58L232.47 27.67L237.11 30.94L241.62 34.39L245.99 38L250.22 41.76L254.3 45.7L258.24 49.78L262 54.01L265.61 58.38L269.06 62.89L272.33 67.53L275.42 72.3L278.33 77.2L281.06 82.22L283.59 87.35L285.93 92.6L288.08 97.94L290.02 103.39L291.74 108.93L293.25 114.56L294.54 120.29L295.6 126.09L296.45 131.96L297.05 137.91L297.41 143.92L297.54 150L297.41 156.08L297.05 162.1L296.45 168.04L295.6 173.92L294.54 179.72L293.25 185.44L291.74 191.08L290.02 196.61L288.08 202.06L285.93 207.41L283.59 212.65L281.06 217.78L278.33 222.8L275.42 227.7L272.33 232.47L269.06 237.12L265.61 241.62L262 246L258.24 250.23L254.3 254.31L250.22 258.24L245.99 262.01L241.62 265.62L237.11 269.07L232.47 272.33L227.7 275.43L222.8 278.34L217.78 281.07L212.65 283.6L207.4 285.94L202.06 288.08L196.61 290.02L191.07 291.74L185.44 293.25L179.71 294.54L173.91 295.61L168.04 296.45L162.09 297.05L156.08 297.42L150 297.54L143.92 297.42L137.9 297.05L131.96 296.45L126.08 295.61L120.28 294.54L114.56 293.25L108.92 291.74L103.39 290.02L97.94 288.08L92.59 285.94L87.35 283.6L83.37 281.64L83.34 281.63L82.58 281.36L81.79 281.07L80.95 280.72L80.07 280.33L79.15 279.9L78.21 279.43L77.22 278.93L76.2 278.39L75.16 277.81L74.09 277.19L72.98 276.53L71.85 275.83L70.71 275.11L69.53 274.35L68.34 273.55L67.13 272.72L65.9 271.86L64.65 270.96L63.39 270.04L62.12 269.09L60.84 268.1L59.55 267.09L58.25 266.05L56.94 264.97L55.63 263.87L54.31 262.75L53.01 261.6L51.69 260.42L50.37 259.22L49.06 257.99L47.76 256.74L46.47 255.47L45.18 254.18L43.9 252.87L42.63 251.53L41.37 250.17L40.13 248.79L38.91 247.41L37.7 245.99L36.52 244.56L35.3 243.06L34.11 241.53L32.95 240L31.8 238.46L30.68 236.9L29.59 235.34L28.51 233.76L27.46 232.19L26.44 230.62L25.45 229.04L25.4 228.96L24.57 227.7L21.66 222.8L18.93 217.78L16.4 212.65L14.06 207.41L11.92 202.06L9.98 196.61L8.26 191.08L6.75 185.44L5.46 179.72L4.39 173.92L3.55 168.04L2.95 162.1L2.58 156.08L2.46 150L2.58 143.92L2.95 137.91L3.55 131.96L4.39 126.09L5.46 120.29L6.75 114.56L8.26 108.93L9.98 103.39L11.92 97.94L14.06 92.6L16.4 87.35L18.93 82.22L21.66 77.2L24.57 72.3L27.67 67.53L30.93 62.89L34.38 58.38L37.99 54.01L41.76 49.78L45.69 45.7L49.77 41.76L54 38L58.38 34.39L62.88 30.94L67.53 27.67L72.3 24.58L77.2 21.67L82.22 18.94L87.35 16.41L92.59 14.07L97.94 11.92L103.39 9.98L108.92 8.26L114.56 6.75L120.28 5.46L126.08 4.4L131.96 3.55L137.9 2.95L143.92 2.59L150 2.46L156.08 2.59L162.09 2.95L168.04 3.55ZM218.17 33.33L217.37 33.69L216.54 34.12L215.71 34.63L214.88 35.22L214.03 35.87L213.18 36.59L212.31 37.38L211.44 38.2L210.55 39.1L209.66 40.03L208.76 41.01L207.85 42.02L206.93 43.07L206.01 44.15L205.07 45.27L204.13 46.4L203.18 47.55L202.22 48.72L201.26 49.89L200.28 51.07L199.31 52.26L198.31 53.44L197.32 54.61L196.33 55.78L195.31 56.92L194.3 58.05L193.28 59.16L192.25 60.25L191.21 61.3L190.17 62.31L189.12 63.29L188.07 64.21L187 65.1L185.94 65.93L185.63 66.12L185.22 66.3L184.74 66.46L184.17 66.61L183.53 66.75L182.82 66.88L182.05 66.98L181.2 67.09L180.3 67.18L179.36 67.27L178.37 67.34L177.32 67.4L176.25 67.46L175.15 67.5L174.01 67.54L172.86 67.57L171.68 67.59L170.49 67.61L169.29 67.62L168.09 67.63L166.89 67.63L165.69 67.63L164.51 67.62L163.33 67.61L162.18 67.6L161.06 67.58L159.95 67.56L158.89 67.54L157.87 67.52L156.89 67.5L155.95 67.48L155.07 67.46L154.25 67.44L153.48 67.42L152.79 67.4L152.17 67.39L151.62 67.37L151.16 67.36L150.79 67.36L150.5 67.36L150.04 67.3L149.53 67.15L148.96 66.9L148.35 66.57L147.69 66.16L146.98 65.67L146.24 65.1L145.47 64.47L144.65 63.77L143.81 63.02L142.94 62.21L142.04 61.37L141.13 60.47L140.18 59.55L139.23 58.59L138.27 57.62L137.28 56.62L136.29 55.6L135.3 54.59L134.3 53.56L133.3 52.54L132.3 51.53L131.32 50.53L130.34 49.54L129.36 48.58L128.41 47.66L127.48 46.76L126.55 45.9L125.66 45.09L124.78 44.33L123.94 43.62L123.13 42.97L122.35 42.4L121.6 41.89L120.9 41.46L120.25 41.11L119.63 40.86L119.06 40.69L118.54 40.62L118.08 40.65L117.02 40.93L116.02 41.29L115.07 41.75L114.19 42.3L113.35 42.92L112.56 43.63L111.83 44.42L111.13 45.27L110.47 46.18L109.85 47.15L109.26 48.19L108.71 49.27L108.18 50.4L107.68 51.56L107.19 52.77L106.73 54.01L106.28 55.28L105.85 56.57L105.41 57.89L104.99 59.2L104.58 60.54L104.15 61.89L103.73 63.23L103.3 64.56L102.86 65.89L102.4 67.21L101.94 68.51L101.45 69.79L100.95 71.05L100.41 72.27L99.85 73.45L99.26 74.6L98.63 75.69L97.96 76.74L97.25 77.74L96.5 78.68L95.7 79.56L94.86 80.37L93.95 81.11L93 81.77L90.56 83.37L88.06 85.14L85.5 87.07L82.9 89.14L80.23 91.37L77.54 93.73L74.81 96.21L72.06 98.81L69.29 101.52L66.49 104.32L63.7 107.21L60.9 110.19L58.12 113.24L55.35 116.36L52.59 119.53L49.87 122.74L47.17 126L44.52 129.29L41.91 132.59L39.36 135.9L36.87 139.23L34.45 142.54L32.1 145.84L29.81 149.12L27.63 152.37L25.53 155.58L23.55 158.72L21.66 161.82L19.88 164.86L18.23 167.81L16.7 170.69L15.3 173.47L14.05 176.14L12.93 178.72L11.98 181.17L11.18 183.49L10.54 185.68L10.09 187.72L9.81 189.6L9.71 191.33L9.73 192.01L9.79 192.75L9.89 193.54L10.02 194.4L10.19 195.3L10.41 196.25L10.65 197.24L10.94 198.3L11.25 199.38L11.61 200.51L11.99 201.68L12.42 202.89L12.88 204.14L13.37 205.42L13.89 206.73L14.45 208.07L15.04 209.45L15.66 210.85L16.31 212.27L17 213.72L17.71 215.19L18.45 216.68L19.23 218.18L20.04 219.71L20.86 221.24L21.73 222.79L22.61 224.34L23.53 225.9L24.47 227.47L25.4 228.96L27.67 232.47L30.93 237.12L34.38 241.62L37.99 246L41.76 250.23L45.69 254.31L49.77 258.24L54 262.01L58.38 265.62L62.88 269.07L67.53 272.33L72.3 275.43L77.2 278.34L82.22 281.07L83.37 281.64L84.14 281.87L84.94 282.11L85.79 282.33L86.66 282.54L87.54 282.74L88.46 282.91L89.38 283.08L90.33 283.23L91.3 283.36L92.28 283.48L93.29 283.56L94.3 283.63L95.33 283.68L96.37 283.71L97.43 283.71L98.49 283.69L99.57 283.64L100.65 283.56L101.73 283.47L102.84 283.33L103.93 283.17L105.03 282.97L106.14 282.76L107.24 282.5L108.34 282.21L109.46 281.88L110.56 281.53L111.65 281.12L112.75 280.69L113.83 280.22L114.91 279.71L115.99 279.16L117.05 278.57L118.11 277.93L119.14 277.25L120.18 276.52L121.19 275.75L122.19 274.94L123.18 274.07L124.14 273.17L124.62 272.69L125.1 272.19L125.57 271.69L126.03 271.16L126.49 270.62L126.95 270.06L127.42 269.49L127.88 268.9L128.33 268.29L128.78 267.67L129.25 267.02L129.7 266.36L130.16 265.69L130.61 265L131.08 264.3L131.53 263.57L131.99 262.83L132.46 262.07L132.92 261.3L133.4 260.5L133.87 259.69L134.35 258.87L134.83 258.03L135.31 257.16L135.81 256.29L136.31 255.39L136.81 254.49L137.32 253.56L137.83 252.62L138.35 251.66L138.89 250.68L139.43 249.69L139.97 248.68L140.53 247.64L141.09 246.6L141.66 245.54L142.25 244.46L142.84 243.36L143.44 242.24L144.06 241.11L144.64 240.01L145.22 238.89L145.77 237.75L146.32 236.6L146.85 235.44L147.37 234.27L147.89 233.09L148.38 231.9L148.87 230.72L149.34 229.54L149.81 228.36L150.28 227.19L150.73 226.03L151.18 224.88L151.62 223.74L152.06 222.62L152.49 221.51L152.91 220.43L153.33 219.36L153.76 218.32L154.17 217.32L154.59 216.33L155.01 215.38L155.42 214.47L155.84 213.59L156.26 212.75L156.68 211.96L157.1 211.2L157.52 210.5L157.96 209.84L158.39 209.23L158.83 208.68L159.28 208.19L159.73 207.75L160.19 207.37L160.65 207.06L161.13 206.81L161.62 206.63L162.12 206.52L162.62 206.48L166.76 206.4L170.82 206.13L174.8 205.71L178.7 205.13L182.52 204.38L186.26 203.5L189.9 202.47L193.47 201.3L196.95 200L200.33 198.57L203.63 197.02L206.83 195.35L209.94 193.58L212.95 191.7L215.87 189.73L218.7 187.65L221.42 185.5L224.05 183.27L226.56 180.94L228.98 178.56L231.3 176.11L233.51 173.61L235.6 171.05L237.6 168.44L239.48 165.79L241.25 163.1L242.91 160.39L244.45 157.64L245.88 154.88L247.19 152.1L248.38 149.32L249.45 146.53L250.41 143.74L251.24 140.97L251.94 138.21L252.52 135.46L252.98 132.75L253.31 130.06L253.5 127.41L253.56 124.8L253.56 123.69L253.55 122.55L253.53 121.39L253.5 120.21L253.47 119L253.42 117.78L253.35 116.54L253.28 115.28L253.19 114.01L253.08 112.72L252.95 111.43L252.82 110.13L252.66 108.83L252.49 107.52L252.3 106.2L252.08 104.88L251.83 103.56L251.58 102.26L251.29 100.95L250.99 99.64L250.64 98.34L250.29 97.05L249.9 95.78L249.48 94.51L249.03 93.27L248.56 92.04L248.05 90.83L247.5 89.63L246.93 88.46L246.32 87.3L245.68 86.18L245 85.08L244.28 84.01L243.52 82.98L242.73 81.96L241.9 80.99L241.02 80.06L240.11 79.15L239.14 78.3L238.14 77.48L237.58 76.97L237.06 76.36L236.58 75.66L236.12 74.87L235.7 73.99L235.31 73.03L234.94 72.01L234.61 70.92L234.3 69.76L234 68.55L233.72 67.28L233.46 65.97L233.21 64.61L232.97 63.24L232.74 61.82L232.51 60.38L232.3 58.93L232.08 57.45L231.86 55.98L231.64 54.5L231.4 53.03L231.17 51.57L230.92 50.11L230.67 48.69L230.39 47.29L230.1 45.91L229.78 44.59L229.45 43.29L229.09 42.05L228.7 40.86L228.29 39.73L227.83 38.67L227.35 37.67L226.84 36.75L226.28 35.91L225.68 35.15L225.04 34.5L224.35 33.93L223.61 33.47L222.83 33.13L222.08 32.91L221.32 32.79L220.54 32.79L219.77 32.88L218.97 33.06L218.17 33.33Z" id="a2uFa61JJh"></path><path d="M168.04 3.55L173.91 4.4L179.71 5.46L185.44 6.75L191.07 8.26L196.61 9.98L202.06 11.92L207.4 14.07L212.65 16.41L217.78 18.94L222.8 21.67L227.7 24.58L232.47 27.67L237.11 30.94L241.62 34.39L245.99 38L250.22 41.76L254.3 45.7L258.24 49.78L262 54.01L265.61 58.38L269.06 62.89L272.33 67.53L275.42 72.3L278.33 77.2L281.06 82.22L283.59 87.35L285.93 92.6L288.08 97.94L290.02 103.39L291.74 108.93L293.25 114.56L294.54 120.29L295.6 126.09L296.45 131.96L297.05 137.91L297.41 143.92L297.54 150L297.41 156.08L297.05 162.1L296.45 168.04L295.6 173.92L294.54 179.72L293.25 185.44L291.74 191.08L290.02 196.61L288.08 202.06L285.93 207.41L283.59 212.65L281.06 217.78L278.33 222.8L275.42 227.7L272.33 232.47L269.06 237.12L265.61 241.62L262 246L258.24 250.23L254.3 254.31L250.22 258.24L245.99 262.01L241.62 265.62L237.11 269.07L232.47 272.33L227.7 275.43L222.8 278.34L217.78 281.07L212.65 283.6L207.4 285.94L202.06 288.08L196.61 290.02L191.07 291.74L185.44 293.25L179.71 294.54L173.91 295.61L168.04 296.45L162.09 297.05L156.08 297.42L150 297.54L143.92 297.42L137.9 297.05L131.96 296.45L126.08 295.61L120.28 294.54L114.56 293.25L108.92 291.74L103.39 290.02L97.94 288.08L92.59 285.94L87.35 283.6L83.37 281.64L83.34 281.63L82.58 281.36L81.79 281.07L80.95 280.72L80.07 280.33L79.15 279.9L78.21 279.43L77.22 278.93L76.2 278.39L75.16 277.81L74.09 277.19L72.98 276.53L71.85 275.83L70.71 275.11L69.53 274.35L68.34 273.55L67.13 272.72L65.9 271.86L64.65 270.96L63.39 270.04L62.12 269.09L60.84 268.1L59.55 267.09L58.25 266.05L56.94 264.97L55.63 263.87L54.31 262.75L53.01 261.6L51.69 260.42L50.37 259.22L49.06 257.99L47.76 256.74L46.47 255.47L45.18 254.18L43.9 252.87L42.63 251.53L41.37 250.17L40.13 248.79L38.91 247.41L37.7 245.99L36.52 244.56L35.3 243.06L34.11 241.53L32.95 240L31.8 238.46L30.68 236.9L29.59 235.34L28.51 233.76L27.46 232.19L26.44 230.62L25.45 229.04L25.4 228.96L24.57 227.7L21.66 222.8L18.93 217.78L16.4 212.65L14.06 207.41L11.92 202.06L9.98 196.61L8.26 191.08L6.75 185.44L5.46 179.72L4.39 173.92L3.55 168.04L2.95 162.1L2.58 156.08L2.46 150L2.58 143.92L2.95 137.91L3.55 131.96L4.39 126.09L5.46 120.29L6.75 114.56L8.26 108.93L9.98 103.39L11.92 97.94L14.06 92.6L16.4 87.35L18.93 82.22L21.66 77.2L24.57 72.3L27.67 67.53L30.93 62.89L34.38 58.38L37.99 54.01L41.76 49.78L45.69 45.7L49.77 41.76L54 38L58.38 34.39L62.88 30.94L67.53 27.67L72.3 24.58L77.2 21.67L82.22 18.94L87.35 16.41L92.59 14.07L97.94 11.92L103.39 9.98L108.92 8.26L114.56 6.75L120.28 5.46L126.08 4.4L131.96 3.55L137.9 2.95L143.92 2.59L150 2.46L156.08 2.59L162.09 2.95L168.04 3.55ZM218.17 33.33L217.37 33.69L216.54 34.12L215.71 34.63L214.88 35.22L214.03 35.87L213.18 36.59L212.31 37.38L211.44 38.2L210.55 39.1L209.66 40.03L208.76 41.01L207.85 42.02L206.93 43.07L206.01 44.15L205.07 45.27L204.13 46.4L203.18 47.55L202.22 48.72L201.26 49.89L200.28 51.07L199.31 52.26L198.31 53.44L197.32 54.61L196.33 55.78L195.31 56.92L194.3 58.05L193.28 59.16L192.25 60.25L191.21 61.3L190.17 62.31L189.12 63.29L188.07 64.21L187 65.1L185.94 65.93L185.63 66.12L185.22 66.3L184.74 66.46L184.17 66.61L183.53 66.75L182.82 66.88L182.05 66.98L181.2 67.09L180.3 67.18L179.36 67.27L178.37 67.34L177.32 67.4L176.25 67.46L175.15 67.5L174.01 67.54L172.86 67.57L171.68 67.59L170.49 67.61L169.29 67.62L168.09 67.63L166.89 67.63L165.69 67.63L164.51 67.62L163.33 67.61L162.18 67.6L161.06 67.58L159.95 67.56L158.89 67.54L157.87 67.52L156.89 67.5L155.95 67.48L155.07 67.46L154.25 67.44L153.48 67.42L152.79 67.4L152.17 67.39L151.62 67.37L151.16 67.36L150.79 67.36L150.5 67.36L150.04 67.3L149.53 67.15L148.96 66.9L148.35 66.57L147.69 66.16L146.98 65.67L146.24 65.1L145.47 64.47L144.65 63.77L143.81 63.02L142.94 62.21L142.04 61.37L141.13 60.47L140.18 59.55L139.23 58.59L138.27 57.62L137.28 56.62L136.29 55.6L135.3 54.59L134.3 53.56L133.3 52.54L132.3 51.53L131.32 50.53L130.34 49.54L129.36 48.58L128.41 47.66L127.48 46.76L126.55 45.9L125.66 45.09L124.78 44.33L123.94 43.62L123.13 42.97L122.35 42.4L121.6 41.89L120.9 41.46L120.25 41.11L119.63 40.86L119.06 40.69L118.54 40.62L118.08 40.65L117.02 40.93L116.02 41.29L115.07 41.75L114.19 42.3L113.35 42.92L112.56 43.63L111.83 44.42L111.13 45.27L110.47 46.18L109.85 47.15L109.26 48.19L108.71 49.27L108.18 50.4L107.68 51.56L107.19 52.77L106.73 54.01L106.28 55.28L105.85 56.57L105.41 57.89L104.99 59.2L104.58 60.54L104.15 61.89L103.73 63.23L103.3 64.56L102.86 65.89L102.4 67.21L101.94 68.51L101.45 69.79L100.95 71.05L100.41 72.27L99.85 73.45L99.26 74.6L98.63 75.69L97.96 76.74L97.25 77.74L96.5 78.68L95.7 79.56L94.86 80.37L93.95 81.11L93 81.77L90.56 83.37L88.06 85.14L85.5 87.07L82.9 89.14L80.23 91.37L77.54 93.73L74.81 96.21L72.06 98.81L69.29 101.52L66.49 104.32L63.7 107.21L60.9 110.19L58.12 113.24L55.35 116.36L52.59 119.53L49.87 122.74L47.17 126L44.52 129.29L41.91 132.59L39.36 135.9L36.87 139.23L34.45 142.54L32.1 145.84L29.81 149.12L27.63 152.37L25.53 155.58L23.55 158.72L21.66 161.82L19.88 164.86L18.23 167.81L16.7 170.69L15.3 173.47L14.05 176.14L12.93 178.72L11.98 181.17L11.18 183.49L10.54 185.68L10.09 187.72L9.81 189.6L9.71 191.33L9.73 192.01L9.79 192.75L9.89 193.54L10.02 194.4L10.19 195.3L10.41 196.25L10.65 197.24L10.94 198.3L11.25 199.38L11.61 200.51L11.99 201.68L12.42 202.89L12.88 204.14L13.37 205.42L13.89 206.73L14.45 208.07L15.04 209.45L15.66 210.85L16.31 212.27L17 213.72L17.71 215.19L18.45 216.68L19.23 218.18L20.04 219.71L20.86 221.24L21.73 222.79L22.61 224.34L23.53 225.9L24.47 227.47L25.4 228.96L27.67 232.47L30.93 237.12L34.38 241.62L37.99 246L41.76 250.23L45.69 254.31L49.77 258.24L54 262.01L58.38 265.62L62.88 269.07L67.53 272.33L72.3 275.43L77.2 278.34L82.22 281.07L83.37 281.64L84.14 281.87L84.94 282.11L85.79 282.33L86.66 282.54L87.54 282.74L88.46 282.91L89.38 283.08L90.33 283.23L91.3 283.36L92.28 283.48L93.29 283.56L94.3 283.63L95.33 283.68L96.37 283.71L97.43 283.71L98.49 283.69L99.57 283.64L100.65 283.56L101.73 283.47L102.84 283.33L103.93 283.17L105.03 282.97L106.14 282.76L107.24 282.5L108.34 282.21L109.46 281.88L110.56 281.53L111.65 281.12L112.75 280.69L113.83 280.22L114.91 279.71L115.99 279.16L117.05 278.57L118.11 277.93L119.14 277.25L120.18 276.52L121.19 275.75L122.19 274.94L123.18 274.07L124.14 273.17L124.62 272.69L125.1 272.19L125.57 271.69L126.03 271.16L126.49 270.62L126.95 270.06L127.42 269.49L127.88 268.9L128.33 268.29L128.78 267.67L129.25 267.02L129.7 266.36L130.16 265.69L130.61 265L131.08 264.3L131.53 263.57L131.99 262.83L132.46 262.07L132.92 261.3L133.4 260.5L133.87 259.69L134.35 258.87L134.83 258.03L135.31 257.16L135.81 256.29L136.31 255.39L136.81 254.49L137.32 253.56L137.83 252.62L138.35 251.66L138.89 250.68L139.43 249.69L139.97 248.68L140.53 247.64L141.09 246.6L141.66 245.54L142.25 244.46L142.84 243.36L143.44 242.24L144.06 241.11L144.64 240.01L145.22 238.89L145.77 237.75L146.32 236.6L146.85 235.44L147.37 234.27L147.89 233.09L148.38 231.9L148.87 230.72L149.34 229.54L149.81 228.36L150.28 227.19L150.73 226.03L151.18 224.88L151.62 223.74L152.06 222.62L152.49 221.51L152.91 220.43L153.33 219.36L153.76 218.32L154.17 217.32L154.59 216.33L155.01 215.38L155.42 214.47L155.84 213.59L156.26 212.75L156.68 211.96L157.1 211.2L157.52 210.5L157.96 209.84L158.39 209.23L158.83 208.68L159.28 208.19L159.73 207.75L160.19 207.37L160.65 207.06L161.13 206.81L161.62 206.63L162.12 206.52L162.62 206.48L166.76 206.4L170.82 206.13L174.8 205.71L178.7 205.13L182.52 204.38L186.26 203.5L189.9 202.47L193.47 201.3L196.95 200L200.33 198.57L203.63 197.02L206.83 195.35L209.94 193.58L212.95 191.7L215.87 189.73L218.7 187.65L221.42 185.5L224.05 183.27L226.56 180.94L228.98 178.56L231.3 176.11L233.51 173.61L235.6 171.05L237.6 168.44L239.48 165.79L241.25 163.1L242.91 160.39L244.45 157.64L245.88 154.88L247.19 152.1L248.38 149.32L249.45 146.53L250.41 143.74L251.24 140.97L251.94 138.21L252.52 135.46L252.98 132.75L253.31 130.06L253.5 127.41L253.56 124.8L253.56 123.69L253.55 122.55L253.53 121.39L253.5 120.21L253.47 119L253.42 117.78L253.35 116.54L253.28 115.28L253.19 114.01L253.08 112.72L252.95 111.43L252.82 110.13L252.66 108.83L252.49 107.52L252.3 106.2L252.08 104.88L251.83 103.56L251.58 102.26L251.29 100.95L250.99 99.64L250.64 98.34L250.29 97.05L249.9 95.78L249.48 94.51L249.03 93.27L248.56 92.04L248.05 90.83L247.5 89.63L246.93 88.46L246.32 87.3L245.68 86.18L245 85.08L244.28 84.01L243.52 82.98L242.73 81.96L241.9 80.99L241.02 80.06L240.11 79.15L239.14 78.3L238.14 77.48L237.58 76.97L237.06 76.36L236.58 75.66L236.12 74.87L235.7 73.99L235.31 73.03L234.94 72.01L234.61 70.92L234.3 69.76L234 68.55L233.72 67.28L233.46 65.97L233.21 64.61L232.97 63.24L232.74 61.82L232.51 60.38L232.3 58.93L232.08 57.45L231.86 55.98L231.64 54.5L231.4 53.03L231.17 51.57L230.92 50.11L230.67 48.69L230.39 47.29L230.1 45.91L229.78 44.59L229.45 43.29L229.09 42.05L228.7 40.86L228.29 39.73L227.83 38.67L227.35 37.67L226.84 36.75L226.28 35.91L225.68 35.15L225.04 34.5L224.35 33.93L223.61 33.47L222.83 33.13L222.08 32.91L221.32 32.79L220.54 32.79L219.77 32.88L218.97 33.06L218.17 33.33Z" id="davFCDbP"></path><path d="M197.14 136.06C197.14 140.78 190.94 149.08 186.81 149.08C182.68 149.08 175.76 140.78 175.76 136.06C175.76 131.34 179.72 133.44 183.86 133.44C185.68 133.44 188.47 133.03 191.02 132.98C194.27 132.91 197.14 133.42 197.14 136.06Z" id="askOhWBOF"></path><path d="M196.26 102.6C205.66 95.61 216.04 95.61 227.41 102.6" id="cohbVYmll"></path><path d="M97.9 133.39C117.57 129.22 142.38 129.55 172.33 134.38" id="b7BFOhxGh"></path><path d="M100.52 141.03C125.44 136.65 149.92 135.67 173.96 138.08" id="a3xQ6zbTYh"></path><path d="M100.52 145.4C134.4 141.04 158.88 139.94 173.96 142.1" id="aejy5yIlE"></path><path d="M285.77 147.24C267.63 141.93 238.99 139.26 199.87 139.19" id="fhiMdDFPM"></path><path d="M282.06 152.29C262.6 146.07 234.74 142.78 198.45 142.44" id="az4uTcFd9"></path><path d="M286.43 142.44C258.01 138.71 229.15 136.36 199.87 135.38" id="bLXreLSdT"></path><path d="M144.61 102.6C154.01 95.61 164.39 95.61 175.76 102.6" id="c13eRwr30F"></path><path d="M56.75 139.19C50.69 139.19 56.75 129.94 56.75 126.24C56.75 122.53 81.67 98.2 87.74 98.2C93.8 98.2 70.03 124.82 70.03 128.53C70.03 132.24 62.81 139.19 56.75 139.19Z" id="aCZKiPRPD"></path><path d="M103.14 78.67C97.07 78.67 106.09 71.71 106.09 68.01C106.09 64.3 112.56 43.91 118.62 43.91C124.69 43.91 141.99 63.65 141.99 67.36C141.99 71.07 109.2 78.67 103.14 78.67Z" id="b2Bni7LpY"></path><path d="M172.33 158.67C181.29 159.1 186 156.27 186.45 150.14" id="eTtgYPNGA"></path><path d="M202.54 157.5C198.56 157.7 195.29 158.39 192.72 157.5C189.52 156.39 187.44 154.1 186.45 150.62" id="a4Ty0QLnUg"></path><path d="M157.38 204.29C149.56 213.67 147.85 217.43 147.85 219.02C147.85 222.73 133.42 237.55 127.35 237.55C121.29 237.55 127.35 228.3 127.35 224.6C127.35 220.89 167.9 181.15 173.96 181.15C176.28 181.15 178.93 193.17 173.19 200.09C170.37 203.49 160.8 200.18 157.38 204.29Z" id="aYGgHjzk"></path><path d="M78.23 189.65L69.37 189.65L60.52 189.65L64.95 180.8L69.37 171.94L73.8 180.8L78.23 189.65Z" id="k1OcCmEF6s"></path><path d="M93.96 214.24C89.08 214.24 85.11 210.28 85.11 205.39C85.11 200.5 89.08 196.53 93.96 196.53C98.85 196.53 102.82 200.5 102.82 205.39C102.82 210.28 98.85 214.24 93.96 214.24Z" id="aP7Pa7GY"></path><path d="M53.64 196.53L53.64 214.24L35.93 214.24L35.93 196.53L53.64 196.53Z" id="bJ2kvrxG6"></path><path d="M76.75 237.22L61.55 221.91" id="a2MbGuFWo"></path><path d="M61.01 237.65L76.21 222.34" id="c1QaefgnTB"></path></defs><g><g><g><use xlink:href="#a2uFa61JJh" opacity="1" fill="#898989" fill-opacity="1"></use><g><use xlink:href="#a2uFa61JJh" opacity="1" fill-opacity="0" stroke="#000000" stroke-width="1" stroke-opacity="0"></use></g></g><g><use xlink:href="#davFCDbP" opacity="1" fill="#000000" fill-opacity="0"></use><g><use xlink:href="#davFCDbP" opacity="1" fill-opacity="0" stroke="#000000" stroke-width="4" stroke-opacity="1"></use></g></g><g><use xlink:href="#askOhWBOF" opacity="1" fill="#d9c9da" fill-opacity="1"></use><g><use xlink:href="#askOhWBOF" opacity="1" fill-opacity="0" stroke="#000000" stroke-width="1" stroke-opacity="0"></use></g></g><g><use xlink:href="#cohbVYmll" opacity="1" fill="#000000" fill-opacity="0"></use><g><use xlink:href="#cohbVYmll" opacity="1" fill-opacity="0" stroke="#000000" stroke-width="2" stroke-opacity="1"></use></g></g><g><use xlink:href="#b7BFOhxGh" opacity="1" fill="#000000" fill-opacity="0"></use><g><use xlink:href="#b7BFOhxGh" opacity="1" fill-opacity="0" stroke="#000000" stroke-width="1" stroke-opacity="1"></use></g></g><g><use xlink:href="#a3xQ6zbTYh" opacity="1" fill="#000000" fill-opacity="0"></use><g><use xlink:href="#a3xQ6zbTYh" opacity="1" fill-opacity="0" stroke="#000000" stroke-width="1" stroke-opacity="1"></use></g></g><g><use xlink:href="#aejy5yIlE" opacity="1" fill="#000000" fill-opacity="0"></use><g><use xlink:href="#aejy5yIlE" opacity="1" fill-opacity="0" stroke="#000000" stroke-width="1" stroke-opacity="1"></use></g></g><g><use xlink:href="#fhiMdDFPM" opacity="1" fill="#000000" fill-opacity="0"></use><g><use xlink:href="#fhiMdDFPM" opacity="1" fill-opacity="0" stroke="#000000" stroke-width="1" stroke-opacity="1"></use></g></g><g><use xlink:href="#az4uTcFd9" opacity="1" fill="#000000" fill-opacity="0"></use><g><use xlink:href="#az4uTcFd9" opacity="1" fill-opacity="0" stroke="#000000" stroke-width="1" stroke-opacity="1"></use></g></g><g><use xlink:href="#bLXreLSdT" opacity="1" fill="#000000" fill-opacity="0"></use><g><use xlink:href="#bLXreLSdT" opacity="1" fill-opacity="0" stroke="#000000" stroke-width="1" stroke-opacity="1"></use></g></g><g><use xlink:href="#c13eRwr30F" opacity="1" fill="#000000" fill-opacity="0"></use><g><use xlink:href="#c13eRwr30F" opacity="1" fill-opacity="0" stroke="#000000" stroke-width="2" stroke-opacity="1"></use></g></g><g><use xlink:href="#aCZKiPRPD" opacity="1" fill="#5d5d5d" fill-opacity="1"></use><g><use xlink:href="#aCZKiPRPD" opacity="1" fill-opacity="0" stroke="#000000" stroke-width="1" stroke-opacity="0"></use></g></g><g><use xlink:href="#b2Bni7LpY" opacity="1" fill="#5d5d5d" fill-opacity="1"></use><g><use xlink:href="#b2Bni7LpY" opacity="1" fill-opacity="0" stroke="#000000" stroke-width="1" stroke-opacity="0"></use></g></g><g><use xlink:href="#eTtgYPNGA" opacity="1" fill="#000000" fill-opacity="0"></use><g><use xlink:href="#eTtgYPNGA" opacity="1" fill-opacity="0" stroke="#000000" stroke-width="1" stroke-opacity="1"></use></g></g><g><use xlink:href="#a4Ty0QLnUg" opacity="1" fill="#000000" fill-opacity="0"></use><g><use xlink:href="#a4Ty0QLnUg" opacity="1" fill-opacity="0" stroke="#000000" stroke-width="1" stroke-opacity="1"></use></g></g><g><use xlink:href="#aYGgHjzk" opacity="1" fill="#5d5d5d" fill-opacity="1"></use><g><use xlink:href="#aYGgHjzk" opacity="1" fill-opacity="0" stroke="#000000" stroke-width="1" stroke-opacity="0"></use></g></g><g><use xlink:href="#k1OcCmEF6s" opacity="1" fill="#000000" fill-opacity="0"></use><g><use xlink:href="#k1OcCmEF6s" opacity="1" fill-opacity="0" stroke="#5d5d5d" stroke-width="4" stroke-opacity="1"></use></g></g><g><use xlink:href="#aP7Pa7GY" opacity="1" fill="#000000" fill-opacity="0"></use><g><use xlink:href="#aP7Pa7GY" opacity="1" fill-opacity="0" stroke="#5d5d5d" stroke-width="4" stroke-opacity="1"></use></g></g><g><use xlink:href="#bJ2kvrxG6" opacity="1" fill="#000000" fill-opacity="0"></use><g><use xlink:href="#bJ2kvrxG6" opacity="1" fill-opacity="0" stroke="#5d5d5d" stroke-width="4" stroke-opacity="1"></use></g></g><g><use xlink:href="#a2MbGuFWo" opacity="1" fill="#000000" fill-opacity="0"></use><g><use xlink:href="#a2MbGuFWo" opacity="1" fill-opacity="0" stroke="#5d5d5d" stroke-width="2" stroke-opacity="1"></use></g></g><g><use xlink:href="#c1QaefgnTB" opacity="1" fill="#000000" fill-opacity="0"></use><g><use xlink:href="#c1QaefgnTB" opacity="1" fill-opacity="0" stroke="#5d5d5d" stroke-width="2" stroke-opacity="1"></use></g></g></g></g></svg>