<?xml version="1.0" encoding="UTF-8" standalone="no"?>
<!DOCTYPE svg PUBLIC "-//W3C//DTD SVG 1.1//EN" "http://www.w3.org/Graphics/SVG/1.1/DTD/svg11.dtd">
<svg version="1.1" xmlns="http://www.w3.org/2000/svg" xmlns:xlink="http://www.w3.org/1999/xlink" preserveAspectRatio="xMidYMid meet" viewBox="98.21014492753625 175.69230769230768 361.7575250836126 305.00000000000006" width="357.26" height="300"><defs><path d="" id="adoL1NG8b"></path><path d="M319.26 178.19L325.31 178.8L331.28 179.66L337.18 180.74L343 182.05L348.72 183.59L354.36 185.34L359.9 187.31L365.33 189.49L370.66 191.87L375.88 194.45L380.98 197.22L385.96 200.18L390.81 203.32L395.53 206.65L400.12 210.15L404.56 213.82L408.86 217.65L413.01 221.65L417.01 225.8L420.84 230.1L424.51 234.54L428.01 239.13L431.34 243.85L434.48 248.7L437.44 253.68L440.21 258.78L442.79 264L445.17 269.33L447.35 274.76L449.32 280.3L451.07 285.94L452.61 291.66L453.92 297.48L455 303.38L455.86 309.35L456.47 315.4L456.84 321.51L456.97 327.69L456.84 333.87L456.47 339.99L455.86 346.03L455 352.01L453.92 357.91L452.61 363.72L451.07 369.45L449.32 375.08L447.35 380.62L445.17 386.06L442.79 391.38L440.21 396.6L437.44 401.7L434.48 406.68L431.34 411.53L428.01 416.26L424.51 420.84L420.84 425.29L417.01 429.59L413.01 433.74L408.86 437.73L404.56 441.57L400.12 445.24L395.53 448.74L390.81 452.06L385.96 455.21L380.98 458.17L375.88 460.94L370.66 463.52L365.33 465.9L359.9 468.07L354.36 470.04L348.72 471.79L343 473.33L337.18 474.64L331.28 475.73L325.31 476.58L319.26 477.19L313.15 477.57L306.97 477.69L300.79 477.57L294.67 477.19L288.63 476.58L282.65 475.73L276.75 474.64L270.94 473.33L265.21 471.79L259.58 470.04L254.04 468.07L248.6 465.9L243.28 463.52L239.23 461.52L239.2 461.51L238.43 461.24L237.62 460.94L236.77 460.59L235.87 460.19L234.94 459.76L233.98 459.28L232.98 458.77L231.94 458.22L230.88 457.63L229.79 457L228.67 456.33L227.52 455.62L226.36 454.89L225.16 454.11L223.95 453.3L222.72 452.46L221.47 451.58L220.2 450.67L218.92 449.73L217.63 448.76L216.32 447.76L215.01 446.73L213.69 445.67L212.36 444.58L211.03 443.46L209.69 442.32L208.36 441.15L207.02 439.95L205.68 438.73L204.35 437.48L203.03 436.21L201.71 434.92L200.4 433.61L199.1 432.27L197.81 430.91L196.53 429.53L195.27 428.13L194.03 426.72L192.8 425.28L191.6 423.83L190.36 422.3L189.15 420.75L187.97 419.19L186.8 417.62L185.66 416.04L184.55 414.45L183.46 412.85L182.39 411.25L181.35 409.65L180.34 408.05L180.29 407.97L179.45 406.68L176.49 401.7L173.72 396.6L171.14 391.38L168.76 386.06L166.59 380.62L164.62 375.08L162.87 369.45L161.33 363.72L160.02 357.91L158.93 352.01L158.08 346.03L157.47 339.99L157.09 333.87L156.97 327.69L157.09 321.51L157.47 315.4L158.08 309.35L158.93 303.38L160.02 297.48L161.33 291.66L162.87 285.94L164.62 280.3L166.59 274.76L168.76 269.33L171.14 264L173.72 258.78L176.49 253.68L179.45 248.7L182.6 243.85L185.92 239.13L189.42 234.54L193.09 230.1L196.93 225.8L200.92 221.65L205.07 217.65L209.37 213.82L213.82 210.15L218.4 206.65L223.13 203.32L227.98 200.18L232.96 197.22L238.06 194.45L243.28 191.87L248.6 189.49L254.04 187.31L259.58 185.34L265.21 183.59L270.94 182.05L276.75 180.74L282.65 179.66L288.63 178.8L294.67 178.19L300.79 177.82L306.97 177.69L313.15 177.82L319.26 178.19ZM377.09 208.8L376.28 209.08L375.46 209.44L374.62 209.88L373.78 210.4L372.93 211L372.07 211.66L371.2 212.39L370.32 213.19L369.43 214.03L368.53 214.94L367.62 215.89L366.71 216.88L365.78 217.91L364.85 218.98L363.91 220.08L362.96 221.21L362 222.36L361.04 223.53L360.06 224.72L359.08 225.91L358.09 227.11L357.1 228.32L356.09 229.52L355.08 230.71L354.07 231.9L353.04 233.06L352.01 234.21L350.97 235.34L349.92 236.44L348.87 237.51L347.81 238.54L346.74 239.53L345.67 240.47L344.59 241.37L343.51 242.22L343.19 242.41L342.78 242.59L342.29 242.76L341.71 242.91L341.06 243.05L340.34 243.18L339.55 243.29L338.69 243.4L337.78 243.49L336.82 243.58L335.81 243.65L334.75 243.71L333.66 243.77L332.54 243.82L331.38 243.86L330.21 243.89L329.01 243.91L327.8 243.93L326.58 243.94L325.36 243.95L324.14 243.95L322.92 243.95L321.72 243.94L320.52 243.93L319.35 243.92L318.21 243.9L317.09 243.88L316.01 243.86L314.97 243.84L313.97 243.82L313.02 243.79L312.12 243.77L311.29 243.75L310.51 243.73L309.81 243.71L309.18 243.7L308.62 243.68L308.15 243.67L307.77 243.67L307.48 243.67L307.01 243.61L306.49 243.46L305.91 243.21L305.29 242.87L304.62 242.45L303.9 241.95L303.15 241.37L302.36 240.73L301.53 240.02L300.68 239.26L299.79 238.44L298.88 237.58L297.95 236.67L296.99 235.73L296.02 234.76L295.04 233.77L294.04 232.75L293.03 231.72L292.02 230.69L291.01 229.64L289.99 228.61L288.98 227.58L287.98 226.56L286.98 225.56L285.99 224.58L285.02 223.64L284.07 222.73L283.13 221.86L282.22 221.03L281.33 220.26L280.48 219.54L279.65 218.88L278.86 218.3L278.1 217.78L277.39 217.34L276.72 216.99L276.09 216.73L275.51 216.56L274.99 216.49L274.52 216.52L273.44 216.8L272.42 217.17L271.46 217.64L270.56 218.19L269.71 218.83L268.91 219.55L268.16 220.35L267.45 221.21L266.78 222.14L266.15 223.13L265.55 224.18L264.99 225.28L264.45 226.43L263.94 227.61L263.45 228.84L262.98 230.1L262.52 231.39L262.08 232.7L261.64 234.04L261.21 235.38L260.79 236.74L260.36 238.11L259.93 239.47L259.49 240.83L259.04 242.18L258.58 243.52L258.11 244.84L257.61 246.14L257.1 247.42L256.55 248.66L255.98 249.86L255.38 251.03L254.74 252.14L254.06 253.21L253.34 254.23L252.58 255.18L251.77 256.08L250.91 256.9L249.99 257.65L249.02 258.32L246.54 259.95L244 261.75L241.4 263.71L238.75 265.82L236.04 268.08L233.3 270.48L230.53 273L227.73 275.65L224.91 278.4L222.07 281.25L219.23 284.19L216.39 287.22L213.56 290.32L210.74 293.49L207.94 296.71L205.17 299.98L202.43 303.29L199.73 306.63L197.08 309.99L194.49 313.36L191.95 316.74L189.49 320.11L187.1 323.46L184.78 326.8L182.56 330.1L180.43 333.36L178.41 336.56L176.49 339.71L174.68 342.8L173 345.8L171.45 348.72L170.03 351.55L168.75 354.27L167.62 356.89L166.65 359.38L165.84 361.74L165.19 363.96L164.73 366.04L164.44 367.95L164.34 369.71L164.36 370.4L164.42 371.15L164.52 371.96L164.66 372.83L164.83 373.74L165.05 374.71L165.3 375.72L165.59 376.79L165.91 377.89L166.27 379.04L166.66 380.23L167.1 381.46L167.56 382.73L168.06 384.03L168.59 385.37L169.16 386.73L169.76 388.13L170.39 389.55L171.05 391L171.75 392.47L172.48 393.97L173.23 395.48L174.02 397.01L174.84 398.56L175.68 400.12L176.56 401.69L177.46 403.27L178.39 404.86L179.35 406.45L180.29 407.97L182.6 411.53L185.92 416.26L189.42 420.84L193.09 425.29L196.93 429.59L200.92 433.74L205.07 437.73L209.37 441.57L213.82 445.24L218.4 448.74L223.13 452.06L227.98 455.21L232.96 458.17L238.06 460.94L239.23 461.52L240.01 461.76L240.83 462L241.69 462.23L242.57 462.44L243.47 462.64L244.4 462.82L245.34 462.99L246.31 463.14L247.29 463.27L248.29 463.39L249.31 463.48L250.34 463.55L251.39 463.6L252.45 463.63L253.52 463.63L254.6 463.61L255.7 463.56L256.8 463.48L257.9 463.38L259.02 463.24L260.13 463.08L261.25 462.88L262.38 462.66L263.5 462.4L264.62 462.1L265.75 461.77L266.87 461.41L267.98 461L269.1 460.56L270.2 460.08L271.3 459.56L272.39 459L273.47 458.4L274.55 457.75L275.6 457.06L276.65 456.32L277.68 455.54L278.7 454.71L279.7 453.83L280.68 452.91L281.17 452.42L281.65 451.92L282.13 451.41L282.6 450.87L283.07 450.32L283.54 449.75L284.01 449.17L284.48 448.57L284.94 447.95L285.4 447.32L285.87 446.66L286.33 445.99L286.8 445.31L287.26 444.61L287.73 443.89L288.19 443.15L288.66 442.4L289.14 441.63L289.61 440.84L290.09 440.03L290.57 439.21L291.06 438.37L291.55 437.52L292.04 436.64L292.54 435.75L293.05 434.84L293.56 433.92L294.08 432.98L294.6 432.02L295.13 431.04L295.67 430.05L296.22 429.04L296.77 428.01L297.34 426.96L297.91 425.9L298.49 424.82L299.09 423.72L299.69 422.61L300.3 421.47L300.93 420.32L301.52 419.2L302.11 418.06L302.67 416.9L303.23 415.73L303.77 414.55L304.3 413.36L304.82 412.16L305.32 410.96L305.82 409.76L306.3 408.56L306.78 407.36L307.25 406.17L307.71 404.99L308.17 403.82L308.62 402.66L309.06 401.52L309.5 400.39L309.93 399.29L310.36 398.21L310.79 397.15L311.21 396.13L311.64 395.13L312.06 394.16L312.48 393.23L312.91 392.34L313.33 391.49L313.76 390.68L314.19 389.91L314.62 389.2L315.06 388.53L315.5 387.91L315.95 387.35L316.4 386.85L316.86 386.4L317.33 386.02L317.8 385.7L318.29 385.45L318.78 385.26L319.29 385.15L319.8 385.11L324.01 385.03L328.14 384.76L332.18 384.33L336.15 383.74L340.03 382.98L343.83 382.08L347.54 381.03L351.16 379.84L354.7 378.52L358.14 377.07L361.49 375.49L364.75 373.8L367.91 372L370.97 370.09L373.94 368.08L376.81 365.97L379.58 363.78L382.25 361.51L384.81 359.15L387.27 356.73L389.62 354.24L391.87 351.69L394 349.09L396.03 346.44L397.94 343.74L399.74 341.01L401.43 338.25L402.99 335.46L404.45 332.65L405.78 329.83L406.99 327L408.08 324.16L409.05 321.33L409.9 318.51L410.61 315.7L411.2 312.91L411.67 310.15L412 307.42L412.2 304.72L412.26 302.07L412.26 300.94L412.25 299.78L412.23 298.6L412.2 297.4L412.16 296.17L412.11 294.93L412.04 293.67L411.97 292.39L411.88 291.1L411.77 289.79L411.64 288.48L411.5 287.16L411.34 285.83L411.17 284.5L410.97 283.16L410.75 281.82L410.5 280.48L410.24 279.15L409.95 277.82L409.64 276.49L409.29 275.17L408.93 273.86L408.53 272.57L408.11 271.28L407.65 270.01L407.17 268.76L406.65 267.53L406.1 266.31L405.52 265.12L404.9 263.95L404.24 262.81L403.55 261.69L402.82 260.6L402.05 259.55L401.25 258.52L400.4 257.53L399.51 256.58L398.58 255.66L397.6 254.79L396.58 253.96L396.01 253.44L395.48 252.82L394.99 252.11L394.53 251.31L394.1 250.41L393.7 249.44L393.33 248.4L392.99 247.29L392.67 246.11L392.37 244.88L392.09 243.59L391.82 242.26L391.57 240.88L391.32 239.48L391.09 238.04L390.86 236.58L390.64 235.1L390.42 233.6L390.19 232.1L389.97 230.6L389.73 229.1L389.49 227.62L389.24 226.14L388.98 224.69L388.7 223.27L388.4 221.87L388.08 220.52L387.74 219.2L387.38 217.94L386.98 216.73L386.56 215.58L386.1 214.5L385.61 213.49L385.09 212.55L384.52 211.7L383.91 210.93L383.26 210.26L382.56 209.69L381.81 209.22L381.01 208.87L380.25 208.65L379.48 208.53L378.69 208.53L377.9 208.62L377.09 208.8Z" id="g1PlbcK5Do"></path><path d="" id="a6FGKNtQzS"></path><path d="M348.67 310.39C351.98 310.32 354.9 310.83 354.9 313.52C354.9 318.32 348.59 326.75 344.39 326.75C340.19 326.75 333.16 318.32 333.16 313.52C333.16 308.72 337.19 310.85 341.39 310.85C343.24 310.85 346.08 310.44 348.67 310.39Z" id="c17Gm1N5Zi"></path><path d="M354 279.5C363.56 272.39 374.11 272.39 385.67 279.5" id="fwpA64fSK"></path><path d="M254 310.8C274 306.56 299.22 306.9 329.67 311.81" id="a7RQrsFuA4"></path><path d="M256.67 318.57C282 314.12 306.89 313.12 331.33 315.57" id="afIGOj1G1"></path><path d="" id="d1kkYgkGb6"></path><path d="M256.67 323.01C291.11 318.58 316 317.46 331.33 319.66" id="eGXnxSZ9D"></path><path d="M445 324.88C426.56 319.49 397.44 316.77 357.67 316.7" id="ejk94fHKz"></path><path d="M441.23 330.02C421.45 323.69 393.12 320.35 356.23 320" id="a1nYvTc9"></path><path d="M445.67 320C416.78 316.21 387.44 313.82 357.67 312.83" id="a91pIrVuy"></path><path d="M301.49 279.5C311.05 272.39 321.6 272.39 333.16 279.5" id="b33Uyh2iqd"></path><path d="M225.67 305.86C225.67 309.63 218.33 316.7 212.17 316.7C206 316.7 212.17 307.3 212.17 303.53C212.17 299.76 237.5 275.03 243.67 275.03C249.83 275.03 225.67 302.09 225.67 305.86Z" id="bjgsSgGbz"></path><path d="M298.83 243.67C298.83 247.44 265.49 255.17 259.33 255.17C253.16 255.17 262.33 248.1 262.33 244.33C262.33 240.56 268.91 219.83 275.07 219.83C281.24 219.83 298.83 239.9 298.83 243.67Z" id="a3uFq6TMCz"></path><path d="M329.67 336.5C338.78 336.94 343.57 334.06 344.03 327.83" id="b2kVWpB6X"></path><path d="M360.39 335.32C356.34 335.52 353.01 336.22 350.4 335.32C347.15 334.19 345.03 331.86 344.03 328.32" id="b5tUCMs2M"></path><path d="M330.55 378.61C327.68 382.07 317.95 378.71 314.47 382.88C306.52 392.42 304.78 396.24 304.78 397.86C304.78 401.63 290.11 416.7 283.94 416.7C277.78 416.7 283.94 407.3 283.94 403.53C283.94 399.76 325.17 359.36 331.33 359.36C333.69 359.36 336.38 371.58 330.55 378.61Z" id="bqeopx6qD"></path><path d="M229.5 359L234 368L225 368L216 368L220.5 359L225 350L229.5 359Z" id="e1AiQcUPZ8"></path><clipPath id="clipbxioGnmH0"><use xlink:href="#e1AiQcUPZ8" opacity="1"></use></clipPath><path d="M259 384C259 388.97 254.97 393 250 393C245.03 393 241 388.97 241 384C241 379.03 245.03 375 250 375C254.97 375 259 379.03 259 384Z" id="gN7rckjQT"></path><clipPath id="clipa8ZvD2ToZu"><use xlink:href="#gN7rckjQT" opacity="1"></use></clipPath><path d="M191 375L209 375L209 393L191 393L191 375Z" id="e1IoFXTXKY"></path><clipPath id="clipd3BdZ5YhP"><use xlink:href="#e1IoFXTXKY" opacity="1"></use></clipPath><path d="M232.5 416.36L217.05 400.8" id="a2XX6ykK9q"></path><path d="M216.5 416.8L231.95 401.24" id="eKz8L0yDM"></path><path d="" id="c1inaQhPmd"></path></defs><g><g><g><use xlink:href="#adoL1NG8b" opacity="1" fill-opacity="0" stroke="#000000" stroke-width="2" stroke-opacity="1"></use></g></g><g><use xlink:href="#g1PlbcK5Do" opacity="1" fill="#898989" fill-opacity="1"></use><g><use xlink:href="#g1PlbcK5Do" opacity="1" fill-opacity="0" stroke="#000000" stroke-width="4" stroke-opacity="1"></use></g></g><g><g><use xlink:href="#a6FGKNtQzS" opacity="1" fill-opacity="0" stroke="#000000" stroke-width="2" stroke-opacity="1"></use></g></g><g><use xlink:href="#c17Gm1N5Zi" opacity="1" fill="#d9c9da" fill-opacity="1"></use></g><g><g><use xlink:href="#fwpA64fSK" opacity="1" fill-opacity="0" stroke="#000000" stroke-width="2" stroke-opacity="1"></use></g></g><g><g><g><use xlink:href="#a7RQrsFuA4" opacity="1" fill-opacity="0" stroke="#000000" stroke-width="1" stroke-opacity="1"></use></g></g><g><g><use xlink:href="#afIGOj1G1" opacity="1" fill-opacity="0" stroke="#000000" stroke-width="1" stroke-opacity="1"></use></g></g><g><g><use xlink:href="#d1kkYgkGb6" opacity="1" fill-opacity="0" stroke="#000000" stroke-width="2" stroke-opacity="1"></use></g></g><g><g><use xlink:href="#eGXnxSZ9D" opacity="1" fill-opacity="0" stroke="#000000" stroke-width="1" stroke-opacity="1"></use></g></g><g><g><use xlink:href="#ejk94fHKz" opacity="1" fill-opacity="0" stroke="#000000" stroke-width="1" stroke-opacity="1"></use></g></g><g><g><use xlink:href="#a1nYvTc9" opacity="1" fill-opacity="0" stroke="#000000" stroke-width="1" stroke-opacity="1"></use></g></g></g><g><g><use xlink:href="#a91pIrVuy" opacity="1" fill-opacity="0" stroke="#000000" stroke-width="1" stroke-opacity="1"></use></g></g><g><g><use xlink:href="#b33Uyh2iqd" opacity="1" fill-opacity="0" stroke="#000000" stroke-width="2" stroke-opacity="1"></use></g></g><g><use xlink:href="#bjgsSgGbz" opacity="1" fill="#5d5d5d" fill-opacity="1"></use></g><g><use xlink:href="#a3uFq6TMCz" opacity="1" fill="#5d5d5d" fill-opacity="1"></use></g><g><g><use xlink:href="#b2kVWpB6X" opacity="1" fill-opacity="0" stroke="#000000" stroke-width="1" stroke-opacity="1"></use></g></g><g><g><use xlink:href="#b5tUCMs2M" opacity="1" fill-opacity="0" stroke="#000000" stroke-width="1" stroke-opacity="1"></use></g></g><g><use xlink:href="#bqeopx6qD" opacity="1" fill="#5d5d5d" fill-opacity="1"></use></g><g><g clip-path="url(#clipbxioGnmH0)"><use xlink:href="#e1AiQcUPZ8" opacity="1" fill-opacity="0" stroke="#5d5d5d" stroke-width="4" stroke-opacity="1"></use></g></g><g><g clip-path="url(#clipa8ZvD2ToZu)"><use xlink:href="#gN7rckjQT" opacity="1" fill-opacity="0" stroke="#5d5d5d" stroke-width="4" stroke-opacity="1"></use></g></g><g><g clip-path="url(#clipd3BdZ5YhP)"><use xlink:href="#e1IoFXTXKY" opacity="1" fill-opacity="0" stroke="#5d5d5d" stroke-width="4" stroke-opacity="1"></use></g></g><g><g><g><use xlink:href="#a2XX6ykK9q" opacity="1" fill-opacity="0" stroke="#5d5d5d" stroke-width="2" stroke-opacity="1"></use></g></g><g><g><use xlink:href="#eKz8L0yDM" opacity="1" fill-opacity="0" stroke="#5d5d5d" stroke-width="2" stroke-opacity="1"></use></g></g></g><g><g><use xlink:href="#c1inaQhPmd" opacity="1" fill-opacity="0" stroke="#000000" stroke-width="3" stroke-opacity="1"></use></g></g></g></svg>